HIERARCHY
ROOT Hips
{
	OFFSET	0.00	0.00	0.00
	CHANNELS 6 Xposition Yposition Zposition Zrotation Xrotation Yrotation
	JOINT LeftHip
	{
		OFFSET	 3.430000	 0.000000	 0.000000
		CHANNELS 3 Zrotation Xrotation Yrotation
		JOINT LeftKnee
		{
			OFFSET	 0.000000	-18.469999	 0.000000
			CHANNELS 3 Zrotation Xrotation Yrotation
			JOINT LeftAnkle
			{
				OFFSET	 0.000000	-17.950001	 0.000000
				CHANNELS 3 Zrotation Xrotation Yrotation
				End Site 
				{
					OFFSET	 0.000000	-3.119996	 0.000000
				}
			}
		}
	}
	JOINT RightHip
	{
		OFFSET	-3.430000	 0.000000	 0.000000
		CHANNELS 3 Zrotation Xrotation Yrotation
		JOINT RightKnee
		{
			OFFSET	 0.000000	-18.809999	 0.000000
			CHANNELS 3 Zrotation Xrotation Yrotation
			JOINT RightAnkle
			{
				OFFSET	 0.000000	-17.570000	 0.000000
				CHANNELS 3 Zrotation Xrotation Yrotation
				End Site 
				{
					OFFSET	 0.000000	-3.250000	 0.000000
				}
			}
		}
	}
	JOINT Chest
	{
		OFFSET	 0.000000	 4.570000	 0.000000
		CHANNELS 3 Zrotation Xrotation Yrotation
		JOINT LeftCollar
		{
			OFFSET	 1.060000	 15.330000	 1.760000
			CHANNELS 3 Zrotation Xrotation Yrotation
			JOINT LeftShoulder
			{
				OFFSET	 5.810000	 0.000000	 0.000000
				CHANNELS 3 Zrotation Xrotation Yrotation
				JOINT LeftElbow
				{
					OFFSET	 0.000000	-12.080000	 0.000000
					CHANNELS 3 Zrotation Xrotation Yrotation
					JOINT LeftWrist
					{
						OFFSET	 0.000000	-9.820000	 0.000000
						CHANNELS 3 Zrotation Xrotation Yrotation
						End Site 
						{
							OFFSET	 0.000000	-7.369996	 0.000000
						}
					}
				}
			}
		}
		JOINT RightCollar
		{
			OFFSET	-1.060000	 15.330000	 1.760000
			CHANNELS 3 Zrotation Xrotation Yrotation
			JOINT RightShoulder
			{
				OFFSET	-6.060000	 0.000000	 0.000000
				CHANNELS 3 Zrotation Xrotation Yrotation
				JOINT RightElbow
				{
					OFFSET	 0.000000	-11.900000	 0.000000
					CHANNELS 3 Zrotation Xrotation Yrotation
					JOINT RightWrist
					{
						OFFSET	 0.000000	-9.520000	 0.000000
						CHANNELS 3 Zrotation Xrotation Yrotation
						End Site 
						{
							OFFSET	 0.000000	-7.140012	 0.000000
						}
					}
				}
			}
		}
		JOINT Neck
		{
			OFFSET	 0.000000	 17.620001	 0.000000
			CHANNELS 3 Zrotation Xrotation Yrotation
			JOINT Head
			{
				OFFSET	 0.000000	 5.190000	 0.000000
				CHANNELS 3 Zrotation Xrotation Yrotation
				End Site 
				{
					OFFSET	 0.000000	 4.140008	 0.000000
				}
			}
		}
	}
}

MOTION
Frames: 23
Frame Time: 0.033333
-45.2066 3.0323 -45.8671 -1.80754 2.53169 61.0798 14.2273 -14.4705 11.2593 -1.52763 12.9458 4.14893 -17.5975 4.03383 -4.0313 -15.1899 4.85624 -30.0918 0.774567 8.08123 6.29496 7.93273 -8.19453 -1.50083 5.73181 -0.628337 4.52337 0 0 0 8.1705 10.5143 4.46949 -42.3528 -38.7252 -27.179 35.7881 -44.0182 -3.04915 0 0 0 -11.4412 -7.38964 7.68148 26.6981 -41.0096 23.0061 -42.2709 -35.0062 9.54864 0 0 0 -2.80543 12.4099 19.4068 
-45.1969 3.0341 -45.8662 -1.81433 2.54378 61.0769 14.2323 -14.4726 11.2512 -1.54234 12.9571 4.1521 -17.6017 4.00963 -4.02306 -15.1824 4.87367 -30.1112 0.774165 8.03765 6.30387 7.94135 -8.16305 -1.49586 5.72113 -0.649081 4.51289 0 0 0 8.15991 10.5126 4.48483 -42.3173 -38.7171 -27.1568 35.719 -44.037 -3.00363 0 0 0 -11.4403 -7.39323 7.71442 26.6848 -41.0043 22.9743 -42.2385 -35.0176 9.5647 0 0 0 -2.79701 12.4115 19.4574 
-45.1904 3.0323 -45.8686 -1.81649 2.54933 61.0712 14.2375 -14.4699 11.2489 -1.5494 12.9647 4.14997 -17.6024 3.99429 -4.01737 -15.1803 4.88667 -30.115 0.778438 8.00972 6.30374 7.93988 -8.14059 -1.48921 5.71337 -0.659046 4.5179 0 0 0 8.1309 10.4723 4.53255 -42.2666 -38.6622 -27.1432 35.6131 -44.0621 -2.92413 0 0 0 -11.4442 -7.39837 7.73256 26.6815 -40.9998 22.9561 -42.2171 -35.0216 9.57291 0 0 0 -2.78596 12.4096 19.479 
-45.1858 3.0286 -45.8677 -1.81682 2.55151 61.0714 14.2387 -14.4698 11.2305 -1.55364 12.9732 4.15504 -17.6069 3.97548 -4.00926 -15.1749 4.89634 -30.1245 0.776707 7.9917 6.30518 7.94794 -8.12559 -1.49077 5.7091 -0.672106 4.51711 0 0 0 8.13448 10.4797 4.53551 -42.2535 -38.6598 -27.1336 35.4784 -44.0767 -2.88349 0 0 0 -11.4449 -7.39411 7.75548 26.6753 -40.9991 22.9439 -42.2107 -35.0222 9.57445 0 0 0 -2.77805 12.4098 19.5003 
-45.1783 3.0235 -45.8652 -1.81843 2.55647 61.0684 14.2443 -14.4691 11.2028 -1.56396 12.9912 4.16673 -17.6178 3.94461 -3.99769 -15.1637 4.9217 -30.1325 0.768623 7.95848 6.31244 7.96179 -8.1152 -1.4881 5.70288 -0.692938 4.52033 0 0 0 8.09949 10.4429 4.57748 -42.1941 -38.6073 -27.1174 35.2901 -44.0971 -2.82847 0 0 0 -11.4513 -7.39227 7.79246 26.6476 -41.057 22.9063 -42.113 -34.9856 9.63623 0 0 0 -2.76994 12.3952 19.5415 
-45.1682 3.0185 -45.8627 -1.82763 2.56679 61.0601 14.2472 -14.4753 11.1873 -1.56825 12.9999 4.17324 -17.6271 3.92735 -3.97786 -15.1548 4.93836 -30.1443 0.765551 7.9214 6.31914 7.97674 -8.0934 -1.48813 5.68896 -0.731106 4.53277 0 0 0 8.09784 10.4455 4.58158 -42.1537 -38.5904 -27.0887 35.1061 -44.1179 -2.78166 0 0 0 -11.4479 -7.37777 7.82861 26.6155 -41.1026 22.8661 -42.0109 -34.9614 9.69453 0 0 0 -2.7535 12.3969 19.5847 
-45.1582 3.0135 -45.8602 -1.83257 2.57125 61.0544 14.2525 -14.4761 11.1749 -1.57216 13.0047 4.17445 -17.6368 3.90947 -3.96123 -15.1391 4.95367 -30.1607 0.760172 7.88644 6.32355 7.98777 -8.07296 -1.47532 5.67981 -0.763181 4.55571 0 0 0 8.10389 10.4393 4.57631 -42.1265 -38.5706 -27.0709 34.9359 -44.1275 -2.72817 0 0 0 -11.4382 -7.39311 7.85793 26.5569 -41.1278 22.8098 -41.9001 -34.9151 9.75394 0 0 0 -2.72592 12.3876 19.6206 
-45.1506 3.0085 -45.8577 -1.83464 2.57801 61.0587 14.2521 -14.4858 11.1523 -1.56724 13.0284 4.1731 -17.647 3.89303 -3.95654 -15.1302 4.96916 -30.1681 0.75869 7.86052 6.31507 7.99279 -8.05877 -1.47416 5.66924 -0.785097 4.56923 0 0 0 8.08044 10.408 4.59781 -42.0713 -38.5201 -27.0527 34.7751 -44.1348 -2.68836 0 0 0 -11.4317 -7.41946 7.89179 26.509 -41.1507 22.7274 -41.7702 -34.882 9.84564 0 0 0 -2.70042 12.3675 19.6567 
-45.1456 3.0034 -45.8527 -1.83572 2.57691 61.0695 14.2486 -14.4874 11.1246 -1.55723 13.0326 4.17349 -17.6579 3.8816 -3.94597 -15.1218 4.97997 -30.1686 0.757414 7.85433 6.30317 8.00051 -8.06765 -1.47672 5.6744 -0.802311 4.59655 0 0 0 8.05695 10.3701 4.59888 -42.025 -38.4676 -27.0424 34.6434 -44.1317 -2.67707 0 0 0 -11.4344 -7.43082 7.91076 26.472 -41.1718 22.6778 -41.6602 -34.8431 9.91785 0 0 0 -2.6866 12.3713 19.6299 
-45.1406 3.0009 -45.8452 -1.84255 2.58075 61.0824 14.2505 -14.4909 11.0963 -1.55678 13.0292 4.17127 -17.6624 3.87827 -3.93312 -15.1036 4.99364 -30.1744 0.747669 7.84267 6.29824 8.01366 -8.08083 -1.48252 5.68014 -0.825314 4.61628 0 0 0 8.05929 10.3711 4.56565 -42.0063 -38.4594 -27.0343 34.5623 -44.1139 -2.72615 0 0 0 -11.4313 -7.43546 7.94483 26.4324 -41.1909 22.6249 -41.5524 -34.813 9.99387 0 0 0 -2.67617 12.3642 19.613 
-45.1356 3.0009 -45.8402 -1.85062 2.58508 61.0967 14.2554 -14.4953 11.0744 -1.55974 13.023 4.1686 -17.6671 3.88411 -3.92142 -15.0897 5.00812 -30.169 0.745246 7.83069 6.28181 8.01481 -8.09461 -1.4853 5.69159 -0.820719 4.62478 0 0 0 8.02748 10.3163 4.57623 -41.963 -38.4177 -27.025 34.5399 -44.095 -2.77125 0 0 0 -11.4378 -7.48044 7.98873 26.3877 -41.2034 22.5634 -41.4338 -34.775 10.068 0 0 0 -2.6674 12.3318 19.6044 
-45.1306 3.0009 -45.8376 -1.84741 2.57516 61.1025 14.271 -14.4751 11.0595 -1.56682 13.0168 4.16295 -17.6707 3.88206 -3.91279 -15.0697 5.03572 -30.1597 0.741723 7.82108 6.27288 8.02285 -8.09896 -1.49986 5.71059 -0.790105 4.63734 0 0 0 8.02123 10.2874 4.55304 -41.9431 -38.41 -27.0106 34.5339 -44.0785 -2.81937 0 0 0 -11.4492 -7.5282 8.02563 26.4253 -41.1429 22.5774 -41.4419 -34.7679 10.0749 0 0 0 -2.66054 12.3003 19.5849 
-45.1306 2.9984 -45.8301 -1.8418 2.56932 61.1256 14.2737 -14.4666 11.0182 -1.57367 13.0111 4.17025 -17.6654 3.88236 -3.91159 -15.0601 5.05759 -30.1575 0.746433 7.82092 6.26349 8.01756 -8.1148 -1.51528 5.73285 -0.751926 4.6416 0 0 0 7.98667 10.2193 4.56141 -41.8976 -38.362 -26.9964 34.5341 -44.0681 -2.86427 0 0 0 -11.4615 -7.59069 8.05858 26.4513 -41.0897 22.5861 -41.4331 -34.7585 10.1005 0 0 0 -2.65479 12.2438 19.5629 
-45.128 2.9984 -45.8226 -1.83816 2.56703 61.1462 14.2761 -14.4558 10.991 -1.58044 13.0069 4.16925 -17.6598 3.88236 -3.91279 -15.0486 5.0871 -30.1551 0.745467 7.81944 6.26296 8.02016 -8.13069 -1.542 5.74898 -0.701791 4.64175 0 0 0 7.95071 10.1433 4.57567 -41.8431 -38.3183 -26.985 34.534 -44.0539 -2.90938 0 0 0 -11.4798 -7.63477 8.09544 26.4954 -41.0585 22.6108 -41.437 -34.7616 10.1149 0 0 0 -2.65207 12.1871 19.536 
-45.1255 2.9934 -45.815 -1.83903 2.56899 61.1674 14.2774 -14.4519 10.9699 -1.59039 12.9961 4.1702 -17.6603 3.88339 -3.90478 -15.0388 5.10697 -30.1567 0.743552 7.81822 6.26476 8.02529 -8.14701 -1.56338 5.76496 -0.653257 4.6347 0 0 0 7.9361 10.0843 4.56121 -41.8269 -38.3168 -26.973 34.5433 -44.0248 -2.96529 0 0 0 -11.5058 -7.68628 8.137 26.5344 -41.017 22.6543 -41.4531 -34.7462 10.1034 0 0 0 -2.65053 12.1136 19.5237 
-45.123 2.9884 -45.81 -1.83646 2.56554 61.1788 14.2792 -14.4493 10.9602 -1.59208 12.9966 4.166 -17.6585 3.88218 -3.90698 -15.0274 5.1254 -30.1473 0.740576 7.83133 6.2586 8.02155 -8.17225 -1.57439 5.77474 -0.597138 4.63795 0 0 0 7.9327 10.0317 4.54544 -41.816 -38.3204 -26.9611 34.5447 -44.0026 -3.02261 0 0 0 -11.5228 -7.74685 8.16976 26.5764 -40.9823 22.7008 -41.4701 -34.7237 10.1011 0 0 0 -2.63627 12.021 19.5258 
-45.118 2.9859 -45.805 -1.84391 2.56674 61.197 14.2757 -14.4687 10.9472 -1.58356 13.0143 4.16835 -17.6685 3.86468 -3.91662 -15.0188 5.13965 -30.165 0.744664 7.83852 6.27042 8.01691 -8.19789 -1.58864 5.7826 -0.557856 4.65232 0 0 0 7.92795 9.97876 4.50814 -41.7902 -38.32 -26.9405 34.5531 -43.9848 -3.06078 0 0 0 -11.552 -7.79932 8.18079 26.612 -40.9553 22.7326 -41.4735 -34.7065 10.1045 0 0 0 -2.62213 11.9485 19.5128 
-45.1105 2.9833 -45.7999 -1.85883 2.57656 61.2201 14.281 -14.4845 10.9356 -1.58965 13.0193 4.16761 -17.6786 3.85818 -3.921 -15.0085 5.14672 -30.1692 0.745914 7.84424 6.26627 8.02009 -8.22842 -1.60392 5.78192 -0.545787 4.66371 0 0 0 7.93459 9.93751 4.46817 -41.7538 -38.3186 -26.9042 34.5512 -43.968 -3.08911 0 0 0 -11.5749 -7.825 8.18412 26.6525 -40.928 22.7819 -41.4708 -34.6854 10.1111 0 0 0 -2.60726 11.8895 19.5001 
-45.1004 2.9833 -45.7924 -1.9005 2.61143 61.2601 14.2711 -14.5484 10.9147 -1.59396 13.0297 4.17056 -17.6797 3.85395 -3.9279 -15.0116 5.1328 -30.1919 0.754717 7.84432 6.26112 8.01451 -8.26556 -1.61538 5.77085 -0.570187 4.68733 0 0 0 7.95354 9.89671 4.40914 -41.7225 -38.3198 -26.8762 34.553 -43.9483 -3.10088 0 0 0 -11.6211 -7.84612 8.11084 26.7043 -40.8932 22.851 -41.4147 -34.6731 10.1363 0 0 0 -2.5851 11.8421 19.4394 
-45.0854 2.9833 -45.7899 -1.93781 2.6388 61.2869 14.271 -14.6003 10.9109 -1.58674 13.0578 4.15861 -17.6999 3.83499 -3.92841 -14.9987 5.13589 -30.2008 0.757912 7.82028 6.23946 8.01903 -8.28276 -1.61333 5.76177 -0.581934 4.70274 0 0 0 7.96836 9.85363 4.3705 -41.6918 -38.3196 -26.8542 34.5526 -43.9201 -3.10885 0 0 0 -11.6738 -7.86986 8.04052 26.7385 -40.8929 22.9017 -41.3352 -34.6424 10.1723 0 0 0 -2.579 11.8037 19.3856 
-45.0703 2.9808 -45.7848 -1.97188 2.6635 61.3087 14.2749 -14.6481 10.9069 -1.58504 13.0841 4.15259 -17.7175 3.80304 -3.93528 -14.9867 5.14378 -30.2056 0.76888 7.79061 6.21499 8.0184 -8.29797 -1.60986 5.75541 -0.597669 4.71686 0 0 0 7.98085 9.82273 4.3305 -41.6642 -38.3159 -26.8383 34.5544 -43.8991 -3.10595 0 0 0 -11.7319 -7.89178 7.97693 26.7827 -40.9043 22.9442 -41.2523 -34.6254 10.2292 0 0 0 -2.57312 11.7551 19.3421 
-45.0527 2.9783 -45.7773 -2.01104 2.68666 61.3271 14.2863 -14.7045 10.9032 -1.58286 13.1225 4.14738 -17.7326 3.7776 -3.93466 -14.9681 5.15344 -30.1999 0.778813 7.75646 6.19046 8.01581 -8.31764 -1.61499 5.74823 -0.632522 4.74759 0 0 0 8.00166 9.78675 4.28061 -41.6268 -38.3133 -26.8086 34.5194 -43.8831 -3.10622 0 0 0 -11.7776 -7.90006 7.90055 26.8129 -40.9108 22.9767 -41.1876 -34.6126 10.2735 0 0 0 -2.56489 11.7224 19.2779 
-45.0326 2.9758 -45.7698 -2.05374 2.71394 61.3384 14.3013 -14.7483 10.8987 -1.58547 13.1437 4.13213 -17.7507 3.74874 -3.9177 -14.9609 5.1483 -30.1937 0.793082 7.72809 6.16531 8.01929 -8.32833 -1.61655 5.73325 -0.684134 4.75854 0 0 0 8.01775 9.74899 4.24592 -41.5843 -38.303 -26.7739 34.475 -43.8566 -3.12899 0 0 0 -11.8034 -7.93118 7.84794 26.8142 -40.8951 22.9808 -41.1212 -34.6099 10.3086 0 0 0 -2.56296 11.6844 19.2771 
